Format : MPEG-4
Format profile : Base Media / Version 2
Codec ID : mp42
File size : 387 MiB
Duration : 1h 33mn
Overall bit rate : 579 Kbps
Encoded date : UTC 2010-11-03 16:34:01
Tagged date : UTC 2010-11-03 16:35:03
Writing application : mp4creator 1.6.1d

Video
ID : 1
Format : AVC
Format/Info : Advanced Video Codec
Format profile : Baseline@L1.3
Format settings, CABAC : No
Format settings, ReFrames : 1 frame
Codec ID : avc1
Codec ID/Info : Advanced Video Coding
Duration : 1h 33mn
Bit rate mode : Variable
Bit rate : 514 Kbps
Width : 480 pixels
Height : 272 pixels
Display aspect ratio : 16:9
Original display aspect ratio : 16:9
Frame rate mode : Constant
Frame rate : 24.000 fps
Resolution : 24 bits
Colorimetry : 4:2:0
Scan type : Progressive
Bits/(Pixel*Frame) : 0.164
Stream size : 344 MiB (89%)
Encoded date : UTC 2010-11-03 16:34:01
Tagged date : UTC 2010-11-03 16:34:51

Audio
ID : 2
Format : AAC
Format/Info : Advanced Audio Codec
Format version : Version 4
Format profile : LC
Format settings, SBR : Yes
Format settings, PS : No
Codec ID : 40
Duration : 1h 33mn
Bit rate mode : Variable
Bit rate : 63.2 Kbps
Maximum bit rate : 169 Kbps
Channel(s) : 2 channels
Channel positions : L R
Sampling rate : 48.0 KHz
Resolution : 16 bits
Stream size : 42.3 MiB (11%)
Encoded date : UTC 2010-11-03 16:34:51
Tagged date : UTC 2010-11-03 16:35:03

Teenagers meet in chat room, and on many occasions celebrations take place in the main chat room named "Chelsia teens". The chatroom is portrayed on screen, as real-life room where people talk as a regular chat room on a computer screen. After a paedophile posing as a girl enters the chat room, they install a bell to fully secure the site.
 
http://www.imdb.com/title/tt1319704/

screens
 
http://img263.imageshack.us/img263/7735/chatroomh264vicemp4snap.jpg 
http://img195.imageshack.us/img195/7735/chatroomh264vicemp4snap.jpg 
http://img574.imageshack.us/img574/7735/chatroomh264vicemp4snap.jpg 
http://img577.imageshack.us/img577/7735/chatroomh264vicemp4snap.jpg